<?xml version="1.0" encoding="UTF-8" standalone="no"?>
<svg
   viewBox="0 0 793.7007874015749 1122.5196850393702"
   width="793.7007874015749"
   height="1122.5196850393702"
   version="1.1"
   id="svg7"
   sodipodi:docname="clamp2D.svg"
   inkscape:version="1.3.2 (091e20e, 2023-11-25, custom)"
   xmlns:inkscape="http://www.inkscape.org/namespaces/inkscape"
   xmlns:sodipodi="http://sodipodi.sourceforge.net/DTD/sodipodi-0.dtd"
   xmlns="http://www.w3.org/2000/svg"
   xmlns:svg="http://www.w3.org/2000/svg">
  <sodipodi:namedview
     id="namedview7"
     pagecolor="#ffffff"
     bordercolor="#000000"
     borderopacity="0.25"
     inkscape:showpageshadow="2"
     inkscape:pageopacity="0.0"
     inkscape:pagecheckerboard="0"
     inkscape:deskcolor="#d1d1d1"
     inkscape:zoom="1.5483635"
     inkscape:cx="372.65151"
     inkscape:cy="294.82741"
     inkscape:window-width="2560"
     inkscape:window-height="1506"
     inkscape:window-x="-11"
     inkscape:window-y="-11"
     inkscape:window-maximized="1"
     inkscape:current-layer="g7" />
  <desc
     id="desc1">clamp2D.dxf - scale = 1.000000, origin = (0.000000, 0.000000), method = manual</desc>
  <defs
     id="defs4">
    <marker
       id="DistanceX"
       orient="auto"
       refX="0.0"
       refY="0.0"
       style="overflow:visible">
      <path
         d="M 3,-3 L -3,3 M 0,-5 L  0,5"
         style="stroke:#000000; stroke-width:0.5"
         id="path1" />
    </marker>
    <pattern
       id="Hatch"
       patternUnits="userSpaceOnUse"
       width="8"
       height="8"
       x="0"
       y="0">
      <path
         d="M8 4 l-4,4"
         stroke="#000000"
         stroke-width="0.25"
         linecap="square"
         id="path2" />
      <path
         d="M6 2 l-4,4"
         stroke="#000000"
         stroke-width="0.25"
         linecap="square"
         id="path3" />
      <path
         d="M4 0 l-4,4"
         stroke="#000000"
         stroke-width="0.25"
         linecap="square"
         id="path4" />
    </pattern>
    <symbol
       id="*MODEL_SPACE" />
    <symbol
       id="*PAPER_SPACE" />
  </defs>
  <g
     inkscape:groupmode="layer"
     inkscape:label="0"
     id="g7">
    <path
       d="m 379.80407,124.72136 a 15.11811,15.11811 0 0 0 0,-30.236215 H 115.23714 a 15.11811,15.11811 0 0 0 0,30.236215 z"
       style="fill:none;stroke:#000000"
       id="path5" />
    <path
       d="m 417.59934,185.1938 a 18.897638,18.897638 0 0 0 18.89764,-18.89764 V 52.910335 A 18.897638,18.897638 0 0 0 417.59934,34.012705 H 58.544229 V 185.1938 Z"
       style="fill:none;stroke:#000000"
       id="path6" />
    <path
       d="M 47.205646,34.012705 A 18.897638,18.897638 0 0 0 28.308009,52.910335 V 166.29616 A 18.897638,18.897638 0 0 0 47.205646,185.1938 H 58.544229 V 34.012705 Z"
       style="fill:none;stroke:#000000"
       id="path7" />
  </g>
</svg>
