999
"DXF R12 Output" (www.mydxf.blogspot.com)
 0 
SECTION
 2 
HEADER
 9 
$ACADVER
 1 
AC1009
 9 
$EXTMIN
 10 
 0 
 20 
 0 
 9 
$EXTMAX
 10 
 8.5 
 20 
 11 
 0 
ENDSEC
 0 
SECTION
 2 
ENTITIES
0
LINE
8
Layer 1
10
0.793749
20
297.793749
11
-0.793749
21
296.206251
0
LINE
8
Layer 1
10
0.000000
20
298.322915
11
0.000000
21
295.677085
0
LINE
8
Layer 1
10
2.116664
20
295.941668
11
1.058332
21
294.883336
0
LINE
8
Layer 1
10
1.587498
20
296.470834
11
0.529166
21
295.412502
0
LINE
8
Layer 1
10
1.058332
20
297.000000
11
0.000000
21
295.941668
0
LINE
8
0
10
100.489700
20
264.000848
11
101.295482
21
264.082516
0
LINE
8
0
10
101.295482
20
264.082516
11
102.045940
21
264.315850
0
LINE
8
0
10
102.045940
20
264.315850
11
103.316637
21
265.173233
0
LINE
8
0
10
103.316637
20
265.173233
11
104.173288
21
266.444422
0
LINE
8
0
10
104.173288
20
266.444422
11
104.406191
21
267.195014
0
LINE
8
0
10
104.406191
20
267.195014
11
104.487395
21
268.000843
0
LINE
8
0
10
104.487395
20
268.000843
11
104.406191
21
268.806671
0
LINE
8
0
10
104.406191
20
268.806671
11
104.173288
21
269.557264
0
LINE
8
0
10
104.173288
20
269.557264
11
103.316637
21
270.828453
0
LINE
8
0
10
103.316637
20
270.828453
11
102.045940
21
271.685835
0
LINE
8
0
10
102.045940
20
271.685835
11
101.295482
21
271.919170
0
LINE
8
0
10
101.295482
20
271.919170
11
100.489700
21
272.000837
0
LINE
8
0
10
100.489700
20
272.000837
11
30.489788
21
272.000837
0
LINE
8
0
10
30.489788
20
272.000837
11
29.684007
21
271.919170
0
LINE
8
0
10
29.684007
20
271.919170
11
28.933548
21
271.685835
0
LINE
8
0
10
28.933548
20
271.685835
11
27.662852
21
270.828453
0
LINE
8
0
10
27.662852
20
270.828453
11
26.806200
21
269.557264
0
LINE
8
0
10
26.806200
20
269.557264
11
26.573297
21
268.806671
0
LINE
8
0
10
26.573297
20
268.806671
11
26.492094
21
268.000843
0
LINE
8
0
10
26.492094
20
268.000843
11
26.573297
21
267.195014
0
LINE
8
0
10
26.573297
20
267.195014
11
26.806200
21
266.444422
0
LINE
8
0
10
26.806200
20
266.444422
11
27.662852
21
265.173233
0
LINE
8
0
10
27.662852
20
265.173233
11
28.933548
21
264.315850
0
LINE
8
0
10
28.933548
20
264.315850
11
29.684007
21
264.082516
0
LINE
8
0
10
29.684007
20
264.082516
11
30.489788
21
264.000848
0
LINE
8
0
10
30.489788
20
264.000848
11
100.489700
21
264.000848
0
LINE
8
0
10
110.489686
20
248.000869
11
111.469692
21
248.097830
0
LINE
8
0
10
111.469692
20
248.097830
11
112.403101
21
248.381471
0
LINE
8
0
10
112.403101
20
248.381471
11
113.263686
21
248.840926
0
LINE
8
0
10
113.263686
20
248.840926
11
114.025216
21
249.465333
0
LINE
8
0
10
114.025216
20
249.465333
11
114.649623
21
250.226864
0
LINE
8
0
10
114.649623
20
250.226864
11
115.109079
21
251.087448
0
LINE
8
0
10
115.109079
20
251.087448
11
115.392719
21
252.020857
0
LINE
8
0
10
115.392719
20
252.020857
11
115.489680
21
253.000863
0
LINE
8
0
10
115.489680
20
253.000863
11
115.489680
21
283.000825
0
LINE
8
0
10
115.489680
20
283.000825
11
115.388098
21
284.008498
0
LINE
8
0
10
115.388098
20
284.008498
11
115.096756
21
284.947047
0
LINE
8
0
10
115.096756
20
284.947047
11
114.635759
21
285.796368
0
LINE
8
0
10
114.635759
20
285.796368
11
114.025215
21
286.536353
0
LINE
8
0
10
114.025215
20
286.536353
11
113.285230
21
287.146897
0
LINE
8
0
10
113.285230
20
287.146897
11
112.435909
21
287.607893
0
LINE
8
0
10
112.435909
20
287.607893
11
111.497359
21
287.899235
0
LINE
8
0
10
111.497359
20
287.899235
11
110.489686
21
288.000816
0
LINE
8
0
10
110.489686
20
288.000816
11
15.489808
21
288.000816
0
LINE
8
0
10
15.489808
20
288.000816
11
15.489808
21
248.000869
0
LINE
8
0
10
15.489808
20
248.000869
11
110.489686
21
248.000869
0
LINE
8
0
10
12.489811
20
288.000816
11
11.482139
21
287.899234
0
LINE
8
0
10
11.482139
20
287.899234
11
10.543589
21
287.607892
0
LINE
8
0
10
10.543589
20
287.607892
11
9.694268
21
287.146896
0
LINE
8
0
10
9.694268
20
287.146896
11
8.954283
21
286.536353
0
LINE
8
0
10
8.954283
20
286.536353
11
8.343739
21
285.796368
0
LINE
8
0
10
8.343739
20
285.796368
11
7.882743
21
284.947047
0
LINE
8
0
10
7.882743
20
284.947047
11
7.591400
21
284.008498
0
LINE
8
0
10
7.591400
20
284.008498
11
7.489818
21
283.000825
0
LINE
8
0
10
7.489818
20
283.000825
11
7.489818
21
253.000863
0
LINE
8
0
10
7.489818
20
253.000863
11
7.586779
21
252.020858
0
LINE
8
0
10
7.586779
20
252.020858
11
7.870420
21
251.087448
0
LINE
8
0
10
7.870420
20
251.087448
11
8.329875
21
250.226864
0
LINE
8
0
10
8.329875
20
250.226864
11
8.954282
21
249.465333
0
LINE
8
0
10
8.954282
20
249.465333
11
9.715812
21
248.840927
0
LINE
8
0
10
9.715812
20
248.840927
11
10.576397
21
248.381471
0
LINE
8
0
10
10.576397
20
248.381471
11
11.509806
21
248.097830
0
LINE
8
0
10
11.509806
20
248.097830
11
12.489811
21
248.000869
0
LINE
8
0
10
12.489811
20
248.000869
11
15.489808
21
248.000869
0
LINE
8
0
10
15.489808
20
248.000869
11
15.489808
21
288.000816
0
LINE
8
0
10
15.489808
20
288.000816
11
12.489811
21
288.000816
 0 
ENDSEC
 0 
EOF